
<svg xmlns="http://www.w3.org/2000/svg" version="1.1" id="Layer_1" xmlns:xlink="http://www.w3.org/1999/xlink" x="0px" y="0px"
	 width="24" height="24" viewBox="0 0 80 80" xml:space="preserve">
<path fill="none" opacity="1.000000" stroke="#877EFF" stroke-width="2"
	d="
M81.000000,18.000000 
	C81.000000,33.020893 81.000000,48.041790 80.677292,63.277256 
	C77.221931,71.297142 72.541992,77.544701 63.934639,79.880699 
	C63.860622,79.900787 63.974075,80.611649 64.000000,81.000000 
	C48.979103,81.000000 33.958210,81.000000 18.717846,80.675919 
	C10.296107,77.180046 4.377682,71.849091 2.077153,63.059288 
	C2.049293,62.952843 1.373402,63.016006 1.000000,63.000000 
	C1.000000,48.645771 1.000000,34.291542 1.338350,19.691425 
	C4.504303,10.999298 9.456820,4.664515 18.531925,2.358608 
	C18.786579,2.293903 18.848310,1.469931 19.000000,1.000000 
	C33.354229,1.000000 47.708454,1.000000 62.306404,1.340689 
	C70.869408,4.451711 77.147713,9.374162 79.897011,18.059015 
	C79.924843,18.146923 80.617638,18.024326 81.000000,18.000000 
M45.497948,74.008118 
	C49.824932,74.007545 54.156361,74.132179 58.477921,73.978798 
	C66.103622,73.708145 72.743141,69.072075 73.310547,61.824677 
	C74.143501,51.185497 73.525146,40.432693 73.525146,29.877407 
	C51.764297,29.877407 30.234505,29.877407 8.477179,29.877407 
	C8.477179,39.419144 8.465560,48.561951 8.480309,57.704720 
	C8.496406,67.682243 14.541650,73.859703 24.528370,73.991379 
	C31.184103,74.079132 37.841930,74.008087 45.497948,74.008118 
M36.252739,21.683109 
	C41.749352,22.306385 47.245960,22.929661 53.917011,23.686110 
	C50.900272,18.325584 48.755875,14.281463 46.345772,10.402429 
	C45.767673,9.471988 44.328583,8.591372 43.247253,8.543052 
	C38.668785,8.338464 34.075916,8.456312 28.763830,8.456312 
	C31.402758,13.045247 33.672260,16.991776 36.252739,21.683109 
M16.703304,9.909800 
	C11.661496,12.694679 8.572196,16.659824 8.518903,23.020811 
	C12.241269,23.020811 15.529060,23.020809 18.816851,23.020809 
	C22.179111,23.020809 25.541372,23.020811 29.586031,23.020811 
	C27.109909,18.679766 24.758659,15.279456 23.169863,11.553983 
	C21.788345,8.314548 19.946724,8.399016 16.703304,9.909800 
M53.714661,8.561776 
	C56.498554,19.919975 60.484886,23.190626 71.351097,23.015112 
	C72.152061,23.002174 72.951805,22.912647 73.767288,22.857702 
	C71.995537,12.043309 67.091957,8.418623 53.714661,8.561776 
z"/>
</svg>



