<svg version="1.1" id="Layer_1" xmlns="http://www.w3.org/2000/svg" xmlns:xlink="http://www.w3.org/1999/xlink" x="0px" y="0px"
	 width="100%" viewBox="0 0 80 80" enable-background="new 0 0 80 80" xml:space="preserve">
<path fill="#FCFCFC" opacity="1.000000" stroke="none" 
	d="
M74.000000,81.000000 
	C52.312439,81.000000 30.624876,81.000000 8.728107,80.678040 
	C6.541549,77.947487 2.914405,75.582214 2.849836,73.123383 
	C2.366407,54.714260 2.455189,36.285019 2.685161,17.866077 
	C2.738267,13.612700 5.333166,10.910820 10.110130,10.999056 
	C15.917080,11.106316 21.727526,11.028711 27.536451,11.023202 
	C32.283344,11.018700 38.379662,6.110263 40.000000,1.000000 
	C40.444447,1.000000 40.888889,1.000000 41.401981,1.289547 
	C46.556606,8.978260 53.199474,12.730351 62.479485,11.103746 
	C65.380516,10.595252 68.446098,11.003914 71.436043,11.028955 
	C77.094406,11.076344 79.402283,13.183554 79.421265,18.709814 
	C79.482315,36.484463 79.431374,54.259460 79.454956,72.034286 
	C79.459579,75.520332 78.307961,78.147629 74.789749,79.408974 
	C74.388008,79.553017 74.256706,80.451393 74.000000,81.000000 
M75.007645,34.502090 
	C75.007645,30.342312 75.013130,26.182522 75.006371,22.022755 
	C74.995888,15.568015 74.927551,15.496423 68.705086,15.479827 
	C65.210899,15.470508 61.686954,15.187123 58.228786,15.540174 
	C51.520851,16.225000 45.775909,14.891745 41.666580,9.087131 
	C41.529354,8.893290 41.063225,8.932293 40.254166,8.752455 
	C36.809158,15.990621 30.140285,15.813484 23.337692,15.510601 
	C19.352234,15.333150 15.351284,15.535973 11.359370,15.459607 
	C8.720525,15.409126 7.425498,16.305073 7.439154,19.206608 
	C7.522162,36.843651 7.477204,54.481274 7.509393,72.118645 
	C7.510838,72.910233 7.845640,73.701218 8.095802,74.803780 
	C11.558443,74.962326 14.953004,75.117760 18.280533,75.270119 
	C21.795923,63.266842 28.787851,56.222286 38.144329,55.574898 
	C52.486465,54.582546 60.816792,61.831226 63.930386,75.511421 
	C65.687180,75.309296 66.984390,75.095062 68.289566,75.020790 
	C75.003975,74.638672 75.006378,74.651222 75.007263,67.947418 
	C75.008690,57.132004 75.007645,46.316586 75.007645,34.502090 
M29.332106,64.826797 
	C27.183693,68.022911 25.035278,71.219017 22.362438,75.195297 
	C35.499432,75.195297 46.842491,75.195297 58.235844,75.195297 
	C55.976807,61.113369 41.029476,55.570652 29.332106,64.826797 
z"/>
<path fill="#0F0F0F" opacity="1.000000" stroke="none" 
	d="
M39.531342,1.000000 
	C38.379662,6.110263 32.283344,11.018700 27.536451,11.023202 
	C21.727526,11.028711 15.917080,11.106316 10.110130,10.999056 
	C5.333166,10.910820 2.738267,13.612700 2.685161,17.866077 
	C2.455189,36.285019 2.366407,54.714260 2.849836,73.123383 
	C2.914405,75.582214 6.541549,77.947487 8.259451,80.678040 
	C5.674797,81.000000 3.349594,81.000000 1.018294,81.000000 
	C1.012196,54.434387 1.012196,27.868769 1.012196,1.000000 
	C13.685951,1.000000 26.374317,1.000000 39.531342,1.000000 
z"/>
<path fill="#0F0F0F" opacity="1.000000" stroke="none" 
	d="
M74.497910,81.000000 
	C74.256706,80.451393 74.388008,79.553017 74.789749,79.408974 
	C78.307961,78.147629 79.459579,75.520332 79.454956,72.034286 
	C79.431374,54.259460 79.482315,36.484463 79.421265,18.709814 
	C79.402283,13.183554 77.094406,11.076344 71.436043,11.028955 
	C68.446098,11.003914 65.380516,10.595252 62.479485,11.103746 
	C53.199474,12.730351 46.556606,8.978260 41.735313,1.289547 
	C54.948643,1.000000 67.897285,1.000000 80.922958,1.000000 
	C80.922958,27.666504 80.922958,54.333225 80.922958,81.000000 
	C78.980003,81.000000 76.987907,81.000000 74.497910,81.000000 
z"/>
<path fill="#070707" opacity="1.000000" stroke="none" 
	d="
M75.007645,35.001633 
	C75.007645,46.316586 75.008690,57.132004 75.007263,67.947418 
	C75.006378,74.651222 75.003975,74.638672 68.289566,75.020790 
	C66.984390,75.095062 65.687180,75.309296 63.930386,75.511421 
	C60.816792,61.831226 52.486465,54.582546 38.144329,55.574898 
	C28.787851,56.222286 21.795923,63.266842 18.280533,75.270119 
	C14.953004,75.117760 11.558443,74.962326 8.095802,74.803780 
	C7.845640,73.701218 7.510838,72.910233 7.509393,72.118645 
	C7.477204,54.481274 7.522162,36.843651 7.439154,19.206608 
	C7.425498,16.305073 8.720525,15.409126 11.359370,15.459607 
	C15.351284,15.535973 19.352234,15.333150 23.337692,15.510601 
	C30.140285,15.813484 36.809158,15.990621 40.254166,8.752455 
	C41.063225,8.932293 41.529354,8.893290 41.666580,9.087131 
	C45.775909,14.891745 51.520851,16.225000 58.228786,15.540174 
	C61.686954,15.187123 65.210899,15.470508 68.705086,15.479827 
	C74.927551,15.496423 74.995888,15.568015 75.006371,22.022755 
	C75.013130,26.182522 75.007645,30.342312 75.007645,35.001633 
M54.545937,42.791557 
	C55.853745,36.756874 53.739334,31.877142 48.876358,28.490463 
	C44.154541,25.202093 38.907421,25.112406 33.869221,28.062311 
	C28.715712,31.079729 26.954412,35.817066 27.470921,41.587727 
	C28.013577,47.650505 32.662003,52.378616 39.068661,53.345257 
	C45.892765,54.374878 51.535427,50.783730 54.545937,42.791557 
z"/>
<path fill="#0F0F0F" opacity="1.000000" stroke="none" 
	d="
M29.610718,64.585907 
	C41.029476,55.570652 55.976807,61.113369 58.235844,75.195297 
	C46.842491,75.195297 35.499432,75.195297 22.362438,75.195297 
	C25.035278,71.219017 27.183693,68.022911 29.610718,64.585907 
z"/>
<path fill="#EFEFEF" opacity="1.000000" stroke="none" 
	d="
M54.478745,43.186089 
	C51.535427,50.783730 45.892765,54.374878 39.068661,53.345257 
	C32.662003,52.378616 28.013577,47.650505 27.470921,41.587727 
	C26.954412,35.817066 28.715712,31.079729 33.869221,28.062311 
	C38.907421,25.112406 44.154541,25.202093 48.876358,28.490463 
	C53.739334,31.877142 55.853745,36.756874 54.478745,43.186089 
M39.142529,30.511011 
	C32.535027,33.229786 30.056025,37.678658 32.129494,43.096767 
	C33.917038,47.767735 39.112507,50.358677 43.836498,48.934959 
	C48.241131,47.607491 50.991364,43.309578 50.471035,38.566868 
	C49.924801,33.588043 46.233521,30.722471 39.142529,30.511011 
z"/>
<path fill="#0B0B0B" opacity="1.000000" stroke="none" 
	d="
M39.515041,30.430912 
	C46.233521,30.722471 49.924801,33.588043 50.471035,38.566868 
	C50.991364,43.309578 48.241131,47.607491 43.836498,48.934959 
	C39.112507,50.358677 33.917038,47.767735 32.129494,43.096767 
	C30.056025,37.678658 32.535027,33.229786 39.515041,30.430912 
z"/>
</svg>